<svg width="23" height="18" viewBox="0 0 23 18" fill="none" xmlns="http://www.w3.org/2000/svg">
<path d="M17.6 1H2.66C1.74321 1 1 1.74321 1 2.66V12.62C1 13.5368 1.74321 14.28 2.66 14.28H17.6C18.5168 14.28 19.26 13.5368 19.26 12.62V2.66C19.26 1.74321 18.5168 1 17.6 1Z" stroke="#9B9B9B" stroke-width="2" stroke-linecap="round" stroke-linejoin="round"/>
<path d="M1 5.97949H19.26" stroke="#9B9B9B" stroke-width="2" stroke-linecap="round" stroke-linejoin="round"/>
<path d="M8.93125 11.697L7.64014 10.4059L8.93125 9.11475" stroke="#9B9B9B" stroke-width="1.5" stroke-linecap="round" stroke-linejoin="round"/>
<path d="M13.4501 8.46973V9.11528C13.4501 9.45771 13.3141 9.78611 13.072 10.0282C12.8298 10.2704 12.5014 10.4064 12.159 10.4064H7.64014" stroke="#9B9B9B" stroke-width="1.5" stroke-linecap="round" stroke-linejoin="round"/>
<path d="M18.4299 16.7699C20.2634 16.7699 21.7499 15.2835 21.7499 13.4499C21.7499 11.6163 20.2634 10.1299 18.4299 10.1299C16.5963 10.1299 15.1099 11.6163 15.1099 13.4499C15.1099 15.2835 16.5963 16.7699 18.4299 16.7699Z" fill="white" stroke="#9B9B9B" stroke-width="2" stroke-linecap="round" stroke-linejoin="round"/>
<path d="M19.2601 12.6201L17.6001 14.2801" stroke="#9B9B9B" stroke-width="1.5" stroke-linecap="round" stroke-linejoin="round"/>
<path d="M17.6001 12.6201L19.2601 14.2801" stroke="#9B9B9B" stroke-width="1.5" stroke-linecap="round" stroke-linejoin="round"/>
</svg>
