<svg width="30" height="30" viewBox="0 0 30 30" fill="none" xmlns="http://www.w3.org/2000/svg">
<path d="M14.1771 1.19179C14.5746 0.616042 15.4254 0.616043 15.8229 1.19179L17.8802 4.17131C18.1364 4.54244 18.6094 4.69611 19.0348 4.54648L22.4505 3.34524C23.1106 3.11311 23.7988 3.61316 23.782 4.31261L23.6951 7.93233C23.6842 8.3832 23.9765 8.78552 24.4087 8.91455L27.8781 9.95041C28.5485 10.1506 28.8114 10.9597 28.3867 11.5157L26.1887 14.393C25.9149 14.7514 25.9149 15.2486 26.1887 15.607L28.3867 18.4843C28.8114 19.0403 28.5485 19.8494 27.8781 20.0496L24.4087 21.0855C23.9765 21.2145 23.6842 21.6168 23.6951 22.0677L23.782 25.6874C23.7988 26.3868 23.1106 26.8869 22.4505 26.6548L19.0348 25.4535C18.6094 25.3039 18.1364 25.4576 17.8802 25.8287L15.8229 28.8082C15.4254 29.384 14.5746 29.384 14.1771 28.8082L12.1198 25.8287C11.8636 25.4576 11.3906 25.3039 10.9652 25.4535L7.54948 26.6548C6.88944 26.8869 6.2012 26.3868 6.218 25.6874L6.30495 22.0677C6.31578 21.6168 6.02347 21.2145 5.59133 21.0855L2.1219 20.0496C1.45149 19.8494 1.1886 19.0403 1.61332 18.4843L3.81128 15.607C4.08506 15.2486 4.08506 14.7514 3.81128 14.393L1.61332 11.5157C1.1886 10.9597 1.45149 10.1506 2.1219 9.95041L5.59133 8.91455C6.02347 8.78552 6.31578 8.3832 6.30495 7.93233L6.218 4.31261C6.2012 3.61315 6.88945 3.11311 7.54948 3.34524L10.9652 4.54648C11.3906 4.69611 11.8636 4.54244 12.1198 4.17131L14.1771 1.19179Z" fill="#24A7A0"/>
<path d="M19.5669 10.1084L10.1074 19.5679" stroke="white" stroke-width="2" stroke-linecap="round" stroke-linejoin="round"/>
<path d="M11.1208 12.811C12.0537 12.811 12.81 12.0547 12.81 11.1218C12.81 10.1889 12.0537 9.43262 11.1208 9.43262C10.1879 9.43262 9.43164 10.1889 9.43164 11.1218C9.43164 12.0547 10.1879 12.811 11.1208 12.811Z" stroke="white" stroke-width="2" stroke-linecap="round" stroke-linejoin="round"/>
<path d="M18.5534 20.2436C19.4864 20.2436 20.2426 19.4873 20.2426 18.5544C20.2426 17.6215 19.4864 16.8652 18.5534 16.8652C17.6205 16.8652 16.8643 17.6215 16.8643 18.5544C16.8643 19.4873 17.6205 20.2436 18.5534 20.2436Z" stroke="white" stroke-width="2" stroke-linecap="round" stroke-linejoin="round"/>
</svg>
