<svg width="28" height="12" viewBox="0 0 28 12" fill="none" xmlns="http://www.w3.org/2000/svg">
<path d="M3.252 11.2V10.132C2.028 10.06 1.104 9.556 0.504 8.872L1.092 8.116C1.56 8.644 2.292 9.136 3.252 9.244V6.316C2.028 5.98 0.756 5.572 0.756 4.096C0.756 2.848 1.8 1.972 3.252 1.888V0.784H3.984V1.9C4.98 1.996 5.76 2.38 6.348 2.992L5.748 3.724C5.268 3.208 4.656 2.908 3.984 2.812V5.416C5.22 5.764 6.528 6.232 6.528 7.792C6.528 8.884 5.832 9.988 3.984 10.132V11.2H3.252ZM5.496 7.876C5.496 7.096 4.824 6.772 3.984 6.52V9.244C5.124 9.124 5.496 8.44 5.496 7.876ZM1.788 4.036C1.788 4.708 2.436 4.984 3.252 5.224V2.776C2.388 2.836 1.788 3.328 1.788 4.036ZM10.3653 11.2V10.132C9.14128 10.06 8.21728 9.556 7.61728 8.872L8.20528 8.116C8.67328 8.644 9.40528 9.136 10.3653 9.244V6.316C9.14128 5.98 7.86928 5.572 7.86928 4.096C7.86928 2.848 8.91328 1.972 10.3653 1.888V0.784H11.0973V1.9C12.0933 1.996 12.8733 2.38 13.4613 2.992L12.8613 3.724C12.3813 3.208 11.7693 2.908 11.0973 2.812V5.416C12.3333 5.764 13.6413 6.232 13.6413 7.792C13.6413 8.884 12.9453 9.988 11.0973 10.132V11.2H10.3653ZM12.6093 7.876C12.6093 7.096 11.9373 6.772 11.0973 6.52V9.244C12.2373 9.124 12.6093 8.44 12.6093 7.876ZM8.90128 4.036C8.90128 4.708 9.54928 4.984 10.3653 5.224V2.776C9.50128 2.836 8.90128 3.328 8.90128 4.036ZM17.4786 11.2V10.132C16.2546 10.06 15.3306 9.556 14.7306 8.872L15.3186 8.116C15.7866 8.644 16.5186 9.136 17.4786 9.244V6.316C16.2546 5.98 14.9826 5.572 14.9826 4.096C14.9826 2.848 16.0266 1.972 17.4786 1.888V0.784H18.2106V1.9C19.2066 1.996 19.9866 2.38 20.5746 2.992L19.9746 3.724C19.4946 3.208 18.8826 2.908 18.2106 2.812V5.416C19.4466 5.764 20.7546 6.232 20.7546 7.792C20.7546 8.884 20.0586 9.988 18.2106 10.132V11.2H17.4786ZM19.7226 7.876C19.7226 7.096 19.0506 6.772 18.2106 6.52V9.244C19.3506 9.124 19.7226 8.44 19.7226 7.876ZM16.0146 4.036C16.0146 4.708 16.6626 4.984 17.4786 5.224V2.776C16.6146 2.836 16.0146 3.328 16.0146 4.036Z" fill="#323232"/>
<path d="M24.5918 11.2V10.132C23.3678 10.06 22.4438 9.556 21.8438 8.872L22.4318 8.116C22.8998 8.644 23.6318 9.136 24.5918 9.244V6.316C23.3678 5.98 22.0958 5.572 22.0958 4.096C22.0958 2.848 23.1398 1.972 24.5918 1.888V0.784H25.3238V1.9C26.3198 1.996 27.0998 2.38 27.6878 2.992L27.0878 3.724C26.6078 3.208 25.9958 2.908 25.3238 2.812V5.416C26.5598 5.764 27.8678 6.232 27.8678 7.792C27.8678 8.884 27.1718 9.988 25.3238 10.132V11.2H24.5918ZM26.8358 7.876C26.8358 7.096 26.1638 6.772 25.3238 6.52V9.244C26.4638 9.124 26.8358 8.44 26.8358 7.876ZM23.1278 4.036C23.1278 4.708 23.7758 4.984 24.5918 5.224V2.776C23.7278 2.836 23.1278 3.328 23.1278 4.036Z" fill="#9B9B9B"/>
</svg>
