<svg width="28" height="20" viewBox="0 0 28 20" fill="none" xmlns="http://www.w3.org/2000/svg">
<path d="M13.7271 12.5463C15.1332 12.5463 16.2731 11.4064 16.2731 10.0003C16.2731 8.59421 15.1332 7.45435 13.7271 7.45435C12.321 7.45435 11.1812 8.59421 11.1812 10.0003C11.1812 11.4064 12.321 12.5463 13.7271 12.5463Z" stroke="#616161" stroke-width="2" stroke-linecap="round" stroke-linejoin="round"/>
<path d="M19.1246 4.60255C19.8347 5.3119 20.3981 6.15427 20.7825 7.0815C21.1668 8.00873 21.3647 9.00263 21.3647 10.0064C21.3647 11.0101 21.1668 12.004 20.7825 12.9312C20.3981 13.8585 19.8347 14.7008 19.1246 15.4102M8.32967 15.3975C7.61953 14.6881 7.05616 13.8457 6.67179 12.9185C6.28742 11.9913 6.08958 10.9974 6.08958 9.99364C6.08958 8.9899 6.28742 7.996 6.67179 7.06877C7.05616 6.14155 7.61953 5.29917 8.32967 4.58982M22.7271 1C25.1136 3.3872 26.4543 6.6245 26.4543 10C26.4543 13.3755 25.1136 16.6128 22.7271 19M4.72713 19C2.34065 16.6128 1 13.3755 1 10C1 6.6245 2.34065 3.3872 4.72713 1" stroke="#616161" stroke-width="2" stroke-linecap="round" stroke-linejoin="round"/>
</svg>
