<svg width="17" height="17" viewBox="0 0 17 17" fill="none" xmlns="http://www.w3.org/2000/svg">
<path d="M8.50009 10.3751C9.53564 10.3751 10.3751 9.53558 10.3751 8.50003C10.3751 7.46448 9.53564 6.625 8.50009 6.625C7.46454 6.625 6.62506 7.46448 6.62506 8.50003C6.62506 9.53558 7.46454 10.3751 8.50009 10.3751Z" stroke="#24A7A0" stroke-width="1.5" stroke-linecap="round" stroke-linejoin="round"/>
<path d="M8.50009 14.7502C11.9519 14.7502 14.7502 11.9519 14.7502 8.50009C14.7502 5.04826 11.9519 2.25 8.50009 2.25C5.04826 2.25 2.25 5.04826 2.25 8.50009C2.25 11.9519 5.04826 14.7502 8.50009 14.7502Z" stroke="#24A7A0" stroke-width="1.5" stroke-linecap="round" stroke-linejoin="round"/>
<path d="M16.0002 8.5H13.5002" stroke="#24A7A0" stroke-width="1.5" stroke-linecap="round" stroke-linejoin="round"/>
<path d="M3.50004 8.5H1" stroke="#24A7A0" stroke-width="1.5" stroke-linecap="round" stroke-linejoin="round"/>
<path d="M8.50012 3.50004V1" stroke="#24A7A0" stroke-width="1.5" stroke-linecap="round" stroke-linejoin="round"/>
<path d="M8.50012 16V13.5" stroke="#24A7A0" stroke-width="1.5" stroke-linecap="round" stroke-linejoin="round"/>
</svg>
