<svg width="19" height="19" viewBox="0 0 19 19" fill="none" xmlns="http://www.w3.org/2000/svg">
<path d="M9.05116 1.89771H2.78915C2.31464 1.89771 1.85956 2.0862 1.52403 2.42173C1.1885 2.75726 1 3.21234 1 3.68685V16.2109C1 16.6854 1.1885 17.1405 1.52403 17.476C1.85956 17.8115 2.31464 18 2.78915 18H15.3132C15.7877 18 16.2428 17.8115 16.5783 17.476C16.9138 17.1405 17.1023 16.6854 17.1023 16.2109V9.94887" stroke="#24A7A0" stroke-width="2" stroke-linecap="round" stroke-linejoin="round"/>
<path d="M15.7605 0.555817C16.1163 0.199933 16.599 -5.30308e-09 17.1023 0C17.6056 5.30308e-09 18.0883 0.199933 18.4442 0.555817C18.8001 0.9117 19 1.39438 19 1.89768C19 2.40097 18.8001 2.88365 18.4442 3.23954L9.94573 11.738L6.36743 12.6326L7.26201 9.05427L15.7605 0.555817Z" fill="#24A7A0"/>
</svg>
