<svg width="108" height="108" viewBox="0 0 108 108" fill="none" xmlns="http://www.w3.org/2000/svg">
<path d="M85.5 49.5H22.5C17.5294 49.5 13.5 53.5294 13.5 58.5V90C13.5 94.9706 17.5294 99 22.5 99H85.5C90.4706 99 94.5 94.9706 94.5 90V58.5C94.5 53.5294 90.4706 49.5 85.5 49.5Z" stroke="black" stroke-width="3" stroke-linecap="round" stroke-linejoin="round"/>
<path d="M31.5 49.5V31.5C31.5 25.5326 33.8705 19.8097 38.0901 15.5901C42.3097 11.3705 48.0326 9 54 9C59.9674 9 65.6903 11.3705 69.9099 15.5901C74.1295 19.8097 76.5 25.5326 76.5 31.5V49.5" stroke="black" stroke-width="3" stroke-linecap="round" stroke-linejoin="round"/>
<g clip-path="url(#clip0_2029_9551)">
<path d="M59.9764 80.0482C58.2591 81.3408 56.1733 82.0501 54.024 82.0722C47.0242 82.0298 43.0727 74.0057 43.0727 74.0057C44.3306 71.6952 46.068 69.6804 48.1685 68.0965M52.0195 66.2998C52.7088 66.1428 53.414 66.0665 54.1209 66.0725C61.1208 66.1149 65.0723 74.1389 65.0723 74.1389C64.4584 75.2708 63.728 76.3356 62.893 77.3158M56.1796 76.2051C55.9032 76.4982 55.5705 76.7326 55.2016 76.8943C54.8326 77.0561 54.4348 77.1418 54.0319 77.1465C53.6291 77.1512 53.2294 77.0747 52.8568 76.9215C52.4842 76.7684 52.1462 76.5417 51.8631 76.2551C51.5799 75.9686 51.3574 75.6279 51.2088 75.2534C51.0601 74.8789 50.9885 74.4784 50.998 74.0756C51.0076 73.6729 51.0981 73.2762 51.2643 72.9092C51.4305 72.5422 51.6689 72.2124 51.9653 71.9395" stroke="black" stroke-width="2" stroke-linecap="round" stroke-linejoin="round"/>
<path d="M43.1396 63.0061L65.0061 85.1389" stroke="black" stroke-width="2" stroke-linecap="round" stroke-linejoin="round"/>
</g>
<defs>
<clipPath id="clip0_2029_9551">
<rect width="24" height="24" fill="white" transform="translate(42.1455 62) rotate(0.346863)"/>
</clipPath>
</defs>
</svg>
