<svg width="22" height="19" viewBox="0 0 22 19" fill="none" xmlns="http://www.w3.org/2000/svg">
<path d="M18.9879 2.50292C18.5116 2.02645 17.9462 1.64848 17.3238 1.39061C16.7015 1.13273 16.0344 1 15.3607 1C14.687 1 14.02 1.13273 13.3976 1.39061C12.7752 1.64848 12.2098 2.02645 11.7335 2.50292L10.7452 3.4913L9.75677 2.50292C8.79479 1.54094 7.49005 1.0005 6.1296 1.0005C4.76914 1.0005 3.46441 1.54094 2.50242 2.50292C1.54044 3.46491 1 4.76964 1 6.1301C1 7.49055 1.54044 8.79528 2.50242 9.75727L3.49081 10.7457L10.7452 18L17.9995 10.7457L18.9879 9.75727C19.4644 9.28102 19.8423 8.71557 20.1002 8.0932C20.3581 7.47084 20.4908 6.80377 20.4908 6.1301C20.4908 5.45642 20.3581 4.78935 20.1002 4.16699C19.8423 3.54463 19.4644 2.97917 18.9879 2.50292Z" stroke="#323232" stroke-width="2" stroke-linecap="round" stroke-linejoin="round"/>
</svg>
