<svg width="17" height="20" viewBox="0 0 17 20" fill="none" xmlns="http://www.w3.org/2000/svg">
<path d="M16.3636 8.18182C16.3636 14.5455 8.18182 20 8.18182 20C8.18182 20 0 14.5455 0 8.18182C3.23348e-08 6.01187 0.86201 3.93079 2.3964 2.3964C3.93079 0.86201 6.01187 0 8.18182 0C10.3518 0 12.4328 0.86201 13.9672 2.3964C15.5016 3.93079 16.3636 6.01187 16.3636 8.18182Z" fill="#24A7A0"/>
<path d="M8.18183 10.9086C9.68806 10.9086 10.9091 9.68761 10.9091 8.18137C10.9091 6.67514 9.68806 5.4541 8.18183 5.4541C6.6756 5.4541 5.45456 6.67514 5.45456 8.18137C5.45456 9.68761 6.6756 10.9086 8.18183 10.9086Z" fill="white"/>
</svg>
