<svg width="10" height="10" viewBox="0 0 10 10" fill="none" xmlns="http://www.w3.org/2000/svg">
<g clip-path="url(#clip0_1255_14232)">
<path d="M8.75 4.16699C8.75 7.08366 5 9.58366 5 9.58366C5 9.58366 1.25 7.08366 1.25 4.16699C1.25 3.17243 1.64509 2.2186 2.34835 1.51534C3.05161 0.81208 4.00544 0.416992 5 0.416992C5.99456 0.416992 6.94839 0.81208 7.65165 1.51534C8.35491 2.2186 8.75 3.17243 8.75 4.16699Z" stroke="#9B9B9B" stroke-linecap="round" stroke-linejoin="round"/>
<path d="M5 5.41699C5.69036 5.41699 6.25 4.85735 6.25 4.16699C6.25 3.47664 5.69036 2.91699 5 2.91699C4.30964 2.91699 3.75 3.47664 3.75 4.16699C3.75 4.85735 4.30964 5.41699 5 5.41699Z" stroke="#9B9B9B" stroke-linecap="round" stroke-linejoin="round"/>
</g>
<defs>
<clipPath id="clip0_1255_14232">
<rect width="10" height="10" fill="white"/>
</clipPath>
</defs>
</svg>
