<svg width="20" height="23" viewBox="0 0 20 23" fill="none" xmlns="http://www.w3.org/2000/svg">
<path d="M16 8.00269C16 6.41139 15.3679 4.88526 14.2426 3.76004C13.1174 2.63483 11.5913 2.00269 10 2.00269C8.4087 2.00269 6.88258 2.63483 5.75736 3.76004C4.63214 4.88526 4 6.41139 4 8.00269C4 15.0027 1 17.0027 1 17.0027H19C19 17.0027 16 15.0027 16 8.00269Z" stroke="#323232" stroke-width="2" stroke-linecap="round" stroke-linejoin="round"/>
<path d="M11.7295 21.0027C11.5537 21.3058 11.3014 21.5573 10.9978 21.7322C10.6941 21.9071 10.3499 21.9991 9.99953 21.9991C9.64915 21.9991 9.30492 21.9071 9.0013 21.7322C8.69769 21.5573 8.44534 21.3058 8.26953 21.0027" stroke="#323232" stroke-width="2" stroke-linecap="round" stroke-linejoin="round"/>
<circle cx="14.5" cy="4.5" r="4.5" fill="#E03131"/>
</svg>
