<svg width="14" height="14" viewBox="0 0 14 14" fill="none" xmlns="http://www.w3.org/2000/svg">
<path d="M5.48251 7.95703H1.56031C1.25086 7.95703 1 8.20789 1 8.51735V12.4395C1 12.749 1.25086 12.9999 1.56031 12.9999H5.48251C5.79197 12.9999 6.04283 12.749 6.04283 12.4395V8.51735C6.04283 8.20789 5.79197 7.95703 5.48251 7.95703Z" stroke="#6B6B6B" stroke-linecap="round" stroke-linejoin="round"/>
<path d="M12.4398 7.95703H8.51759C8.20814 7.95703 7.95728 8.20789 7.95728 8.51735V12.4395C7.95728 12.749 8.20814 12.9999 8.51759 12.9999H12.4398C12.7492 12.9999 13.0001 12.749 13.0001 12.4395V8.51735C13.0001 8.20789 12.7492 7.95703 12.4398 7.95703Z" stroke="#6B6B6B" stroke-linecap="round" stroke-linejoin="round"/>
<path d="M5.48251 1H1.56031C1.25086 1 1 1.25086 1 1.56031V5.48251C1 5.79197 1.25086 6.04283 1.56031 6.04283H5.48251C5.79197 6.04283 6.04283 5.79197 6.04283 5.48251V1.56031C6.04283 1.25086 5.79197 1 5.48251 1Z" stroke="#6B6B6B" stroke-linecap="round" stroke-linejoin="round"/>
<path d="M12.4398 1H8.51759C8.20814 1 7.95728 1.25086 7.95728 1.56031V5.48251C7.95728 5.79197 8.20814 6.04283 8.51759 6.04283H12.4398C12.7492 6.04283 13.0001 5.79197 13.0001 5.48251V1.56031C13.0001 1.25086 12.7492 1 12.4398 1Z" stroke="#6B6B6B" stroke-linecap="round" stroke-linejoin="round"/>
</svg>
