<svg width="14" height="14" viewBox="0 0 14 14" fill="none" xmlns="http://www.w3.org/2000/svg">
<path d="M11.8 1H2.2C1.53726 1 1 1.53726 1 2.2V4.6C1 5.26274 1.53726 5.8 2.2 5.8H11.8C12.4627 5.8 13 5.26274 13 4.6V2.2C13 1.53726 12.4627 1 11.8 1Z" stroke="#6B6B6B" stroke-width="1.2" stroke-linecap="round" stroke-linejoin="round"/>
<path d="M11.8 8.2002H2.2C1.53726 8.2002 1 8.73745 1 9.4002V11.8002C1 12.4629 1.53726 13.0002 2.2 13.0002H11.8C12.4627 13.0002 13 12.4629 13 11.8002V9.4002C13 8.73745 12.4627 8.2002 11.8 8.2002Z" stroke="#6B6B6B" stroke-width="1.2" stroke-linecap="round" stroke-linejoin="round"/>
<path d="M3.40039 3.40039H3.40689" stroke="#6B6B6B" stroke-width="1.2" stroke-linecap="round" stroke-linejoin="round"/>
<path d="M3.40039 10.5996H3.40689" stroke="#6B6B6B" stroke-width="1.2" stroke-linecap="round" stroke-linejoin="round"/>
</svg>
