<svg width="23" height="22" viewBox="0 0 23 22" fill="none" xmlns="http://www.w3.org/2000/svg">
<path d="M8.61838 20.9995C9.14436 20.9995 9.57075 20.5731 9.57075 20.0471C9.57075 19.5211 9.14436 19.0947 8.61838 19.0947C8.09241 19.0947 7.66602 19.5211 7.66602 20.0471C7.66602 20.5731 8.09241 20.9995 8.61838 20.9995Z" fill="#323232" stroke="#323232" stroke-width="1.5" stroke-linecap="round" stroke-linejoin="round"/>
<path d="M19.094 20.9995C19.6199 20.9995 20.0463 20.5731 20.0463 20.0471C20.0463 19.5211 19.6199 19.0947 19.094 19.0947C18.568 19.0947 18.1416 19.5211 18.1416 20.0471C18.1416 20.5731 18.568 20.9995 19.094 20.9995Z" fill="#323232" stroke="#323232" stroke-width="1.5" stroke-linecap="round" stroke-linejoin="round"/>
<path d="M1 1H4.80947L7.36182 13.7522C7.44891 14.1907 7.68744 14.5845 8.03566 14.8649C8.38389 15.1452 8.81961 15.2941 9.26656 15.2855H18.5236C18.9705 15.2941 19.4062 15.1452 19.7545 14.8649C20.1027 14.5845 20.3412 14.1907 20.4283 13.7522L21.9521 5.76184H5.76184" stroke="#323232" stroke-width="2" stroke-linecap="round" stroke-linejoin="round"/>
</svg>
